<svg width="23" height="20" viewBox="0 0 23 20" fill="none" xmlns="http://www.w3.org/2000/svg">
<g id="comment button">
<path id="Union" d="M22 13.4989L21.5 13.5013V13.4989H22ZM21.5 3.89095C21.5 2.57047 20.4295 1.5 19.109 1.5V0.5C20.9818 0.5 22.5 2.01818 22.5 3.89095H21.5ZM21.5 13.4989V3.89095H22.5V13.4989H21.5ZM21.5 13.5013C21.5 13.5013 21.5 13.5013 21.5 13.5013L22.5 13.4965C22.5 13.4981 22.5 13.4997 22.5 13.5013H21.5ZM21.5 18.585V13.5013H22.5V18.585H21.5ZM21.5308 18.5719C21.5327 18.5737 21.5322 18.5728 21.5291 18.5713C21.5261 18.5698 21.5226 18.5687 21.5192 18.5681C21.5161 18.5676 21.5138 18.5677 21.5126 18.5679C21.5116 18.568 21.5111 18.5682 21.5111 18.5683C21.511 18.5683 21.5106 18.5685 21.5097 18.5691C21.5088 18.5699 21.5071 18.5714 21.5053 18.5741C21.5034 18.5768 21.5017 18.5801 21.5007 18.5833C21.4997 18.5866 21.5 18.5876 21.5 18.585H22.5C22.5 19.4509 21.4607 19.8928 20.837 19.2921L21.5308 18.5719ZM3.89095 16.2625H15.8044V17.2625H3.89095V16.2625ZM1.5 13.8715C1.5 15.192 2.57047 16.2625 3.89095 16.2625V17.2625C2.01818 17.2625 0.5 15.7443 0.5 13.8715H1.5ZM1.5 3.89095V13.8715H0.5V3.89095H1.5ZM3.89095 1.5C2.57046 1.5 1.5 2.57046 1.5 3.89095H0.5C0.5 2.01818 2.01818 0.5 3.89095 0.5V1.5ZM19.109 1.5H3.89095V0.5H19.109V1.5ZM20.837 19.2921C19.4852 17.99 17.6813 17.2625 15.8044 17.2625V16.2625C17.9401 16.2625 19.9926 17.0903 21.5308 18.5719L20.837 19.2921Z" fill="white"/>
</g>
</svg>
