<svg width="83" height="15" viewBox="0 0 83 15" fill="none" xmlns="http://www.w3.org/2000/svg">
<g id="Group 29">
<path id="Vector" d="M11.805 14.128C11.3198 14.4869 8.20608 12.2116 7.60973 12.2066C7.01339 12.2016 3.86464 14.4246 3.38503 14.0576C2.90542 13.6906 4.03296 9.92095 3.85327 9.33213C3.67358 8.74331 0.658845 6.32917 0.84769 5.74341C1.03658 5.15764 4.84713 5.10324 5.33239 4.74429C5.81766 4.38538 7.10323 0.67034 7.69962 0.675298C8.29592 0.680299 9.52341 4.41634 10.003 4.78335C10.4826 5.15032 14.2919 5.26844 14.4716 5.85726C14.6513 6.44609 11.5994 8.80952 11.4105 9.39529C11.2216 9.98105 12.2903 13.769 11.805 14.128Z" fill="#F6C65C"/>
<path id="Vector_2" d="M29.4363 14.128C28.9137 14.4869 25.5605 12.2116 24.9183 12.2066C24.2761 12.2016 20.8851 14.4246 20.3686 14.0576C19.8521 13.6906 21.0664 9.92095 20.8729 9.33213C20.6794 8.74331 17.4327 6.32917 17.6361 5.74341C17.8395 5.15764 21.9432 5.10324 22.4658 4.74429C22.9884 4.38538 24.3729 0.67034 25.0151 0.675298C25.6573 0.680299 26.9792 4.41634 27.4957 4.78335C28.0122 5.15032 32.1145 5.26844 32.308 5.85726C32.5015 6.44609 29.2149 8.80952 29.0114 9.39529C28.8081 9.98105 29.9589 13.769 29.4363 14.128Z" fill="#F6C65C"/>
<path id="Vector_3" d="M46.2241 14.128C45.7015 14.4869 42.3483 12.2116 41.7061 12.2066C41.0639 12.2016 37.6729 14.4246 37.1564 14.0576C36.6399 13.6906 37.8542 9.92095 37.6607 9.33213C37.4672 8.74331 34.2205 6.32917 34.4239 5.74341C34.6273 5.15764 38.731 5.10324 39.2536 4.74429C39.7762 4.38538 41.1606 0.67034 41.8029 0.675298C42.4451 0.680299 43.767 4.41634 44.2835 4.78335C44.8 5.15032 48.9022 5.26844 49.0958 5.85726C49.2893 6.44609 46.0026 8.80952 45.7992 9.39529C45.5958 9.98105 46.7467 13.769 46.2241 14.128Z" fill="#F6C65C"/>
<path id="Vector_4" d="M63.012 14.128C62.4894 14.4869 59.1361 12.2116 58.4939 12.2066C57.8517 12.2016 54.4607 14.4246 53.9442 14.0576C53.4277 13.6906 54.642 9.92095 54.4485 9.33213C54.255 8.74331 51.0084 6.32917 51.2117 5.74341C51.4151 5.15764 55.5188 5.10324 56.0414 4.74429C56.564 4.38538 57.9485 0.67034 58.5907 0.675298C59.2329 0.680299 60.5548 4.41634 61.0713 4.78335C61.5878 5.15032 65.6901 5.26844 65.8836 5.85726C66.0771 6.44609 62.7905 8.80952 62.5871 9.39529C62.3837 9.98105 63.5346 13.769 63.012 14.128Z" fill="#F6C65C"/>
<path id="Vector_5" d="M80.0053 14.128C79.5201 14.4869 76.4064 12.2116 75.81 12.2066C75.2137 12.2016 72.0649 14.4246 71.5853 14.0576C71.1057 13.6906 72.2332 9.92095 72.0535 9.33213C71.8739 8.74331 68.8591 6.32917 69.048 5.74341C69.2369 5.15764 73.0474 5.10324 73.5327 4.74429C74.0179 4.38538 75.3035 0.67034 75.8999 0.675298C76.4962 0.680299 77.7237 4.41634 78.2033 4.78335C78.6829 5.15032 82.4922 5.26844 82.6719 5.85726C82.8516 6.44609 79.7997 8.80952 79.6108 9.39529C79.4219 9.98105 80.4906 13.769 80.0053 14.128Z" fill="#8C8F96"/>
<path id="Subtract" fill-rule="evenodd" clip-rule="evenodd" d="M75.6605 0.675293C75.3009 0.750042 74.7273 1.96994 74.2092 3.07153C73.8186 3.9022 73.4596 4.66559 73.2479 4.81997C73.0362 4.97436 72.2125 5.07349 71.3162 5.18135C70.088 5.32914 68.7236 5.49333 68.6107 5.83855C68.4978 6.18378 69.492 7.15195 70.3869 8.02343C71.0399 8.65944 71.6401 9.24395 71.7185 9.49721C71.7969 9.75047 71.6347 10.5809 71.4582 11.4846C71.2163 12.7228 70.9477 14.0985 71.2343 14.3148C71.521 14.5311 72.7301 13.8649 73.8184 13.2653C74.6126 12.8277 75.3425 12.4255 75.6027 12.4277C75.62 12.4278 75.6393 12.4298 75.6605 12.4334V0.675293Z" fill="#F6C65C"/>
</g>
</svg>
