<svg width="85" height="15" viewBox="0 0 85 15" fill="none" xmlns="http://www.w3.org/2000/svg">
<g id="Group 29">
<path id="Vector" d="M11.6214 13.9835C11.1213 14.3421 7.91282 12.0694 7.29832 12.0644C6.68382 12.0595 3.43918 14.2798 2.94497 13.9133C2.45076 13.5467 3.61262 9.78152 3.42747 9.1934C3.24231 8.60528 0.135768 6.19402 0.330364 5.60895C0.525003 5.02389 4.45159 4.96955 4.95163 4.61102C5.45168 4.25254 6.7764 0.541928 7.39094 0.54688C8.0054 0.551875 9.27027 4.28346 9.76449 4.65004C10.2587 5.01657 14.184 5.13455 14.3692 5.72267C14.5543 6.3108 11.4095 8.67142 11.2148 9.25648C11.0202 9.84155 12.1214 13.625 11.6214 13.9835Z" fill="#F6C65C"/>
<path id="Vector_2" d="M29.7895 13.9835C29.251 14.3421 25.7957 12.0694 25.1339 12.0644C24.4721 12.0595 20.9779 14.2798 20.4457 13.9133C19.9134 13.5467 21.1647 9.78152 20.9653 9.1934C20.7659 8.60528 17.4204 6.19402 17.6299 5.60895C17.8396 5.02389 22.0682 4.96955 22.6067 4.61102C23.1452 4.25254 24.5718 0.541928 25.2336 0.54688C25.8954 0.551875 27.2575 4.28346 27.7898 4.65004C28.322 5.01657 32.5492 5.13455 32.7486 5.72267C32.948 6.3108 29.5613 8.67142 29.3517 9.25648C29.1421 9.84155 30.328 13.625 29.7895 13.9835Z" fill="#F6C65C"/>
<path id="Vector_3" d="M47.0886 13.9835C46.55 14.3421 43.0947 12.0694 42.433 12.0644C41.7712 12.0595 38.277 14.2798 37.7447 13.9133C37.2125 13.5467 38.4637 9.78152 38.2643 9.1934C38.0649 8.60528 34.7194 6.19402 34.929 5.60895C35.1386 5.02389 39.3672 4.96955 39.9057 4.61102C40.4443 4.25254 41.8709 0.541928 42.5327 0.54688C43.1944 0.551875 44.5566 4.28346 45.0888 4.65004C45.621 5.01657 49.8482 5.13455 50.0477 5.72267C50.2471 6.3108 46.8603 8.67142 46.6507 9.25648C46.4412 9.84155 47.6271 13.625 47.0886 13.9835Z" fill="#F6C65C"/>
<path id="Vector_4" d="M64.3876 13.9835C63.8491 14.3421 60.3938 12.0694 59.732 12.0644C59.0702 12.0595 55.576 14.2798 55.0438 13.9133C54.5115 13.5467 55.7628 9.78152 55.5634 9.1934C55.364 8.60528 52.0185 6.19402 52.228 5.60895C52.4376 5.02389 56.6663 4.96955 57.2048 4.61102C57.7433 4.25254 59.1699 0.541928 59.8317 0.54688C60.4935 0.551875 61.8556 4.28346 62.3878 4.65004C62.9201 5.01657 67.1473 5.13455 67.3467 5.72267C67.5461 6.3108 64.1594 8.67142 63.9497 9.25648C63.7402 9.84155 64.9261 13.625 64.3876 13.9835Z" fill="#F6C65C"/>
<path id="Vector_5" d="M81.8984 13.9835C81.3984 14.3421 78.1899 12.0694 77.5754 12.0644C76.9609 12.0595 73.7162 14.2798 73.222 13.9133C72.7278 13.5467 73.8897 9.78152 73.7045 9.1934C73.5193 8.60528 70.4128 6.19402 70.6074 5.60895C70.802 5.02389 74.7286 4.96955 75.2287 4.61102C75.7287 4.25254 77.0534 0.541928 77.668 0.54688C78.2824 0.551875 79.5473 4.28346 80.0415 4.65004C80.5357 5.01657 84.461 5.13455 84.6462 5.72267C84.8313 6.3108 81.6865 8.67142 81.4919 9.25648C81.2973 9.84155 82.3985 13.625 81.8984 13.9835Z" fill="#8C8F96"/>
</g>
</svg>
