<svg width="21" height="17" viewBox="0 0 21 17" fill="none" xmlns="http://www.w3.org/2000/svg">
<g id="heart">
<g id="Union">
<mask id="path-1-inside-1_671_1711" fill="white">
<path fill-rule="evenodd" clip-rule="evenodd" d="M14.9246 0.0481522C16.4963 0.160641 17.9721 0.782331 19.0854 1.80092C20.3117 2.9268 21 4.44971 21 6.0371C21 7.62449 20.3117 9.1474 19.0854 10.2733L12.5633 16.2346C12.0171 16.7251 11.2816 17 10.5153 17C9.74898 17 9.0134 16.7251 8.46725 16.2346L1.94509 10.2733C0.763347 9.20242 0.0701308 7.76273 0.00503646 6.24413C-0.0600578 4.72554 0.507805 3.24083 1.59427 2.08901C2.68074 0.937182 4.2051 0.203792 5.8604 0.0365241C7.5157 -0.130744 9.17897 0.280536 10.5153 1.18754C11.789 0.339793 13.353 -0.0643367 14.9246 0.0481522Z"/>
</mask>
<path d="M19.0854 1.80092L19.7618 1.06431L19.7605 1.06313L19.0854 1.80092ZM14.9246 0.0481522L14.8533 1.0456L14.9246 0.0481522ZM19.0854 10.2733L19.7601 11.0114L19.7618 11.0099L19.0854 10.2733ZM12.5633 16.2346L13.2315 16.9786L13.2379 16.9727L12.5633 16.2346ZM8.46725 16.2346L7.79256 16.9728L7.79907 16.9786L8.46725 16.2346ZM1.94509 10.2733L2.61975 9.53514L2.61658 9.53226L1.94509 10.2733ZM0.00503646 6.24413L-0.994046 6.28696L0.00503646 6.24413ZM1.59427 2.08901L0.866827 1.40284L1.59427 2.08901ZM5.8604 0.0365241L5.75986 -0.958409L5.8604 0.0365241ZM10.5153 1.18754L9.95367 2.01495L10.5098 2.39242L11.0693 2.02001L10.5153 1.18754ZM19.7605 1.06313C18.4732 -0.114635 16.7817 -0.821491 14.996 -0.949296L14.8533 1.0456C16.2109 1.14277 17.4711 1.6793 18.4104 2.53872L19.7605 1.06313ZM22 6.0371C22 4.15464 21.183 2.36916 19.7618 1.06431L18.4091 2.53754C19.4405 3.48445 20 4.74478 20 6.0371H22ZM19.7618 11.0099C21.183 9.70505 22 7.91956 22 6.0371H20C20 7.32943 19.4405 8.58976 18.4091 9.53666L19.7618 11.0099ZM13.2379 16.9727L19.7601 11.0114L18.4108 9.53515L11.8886 15.4965L13.2379 16.9727ZM10.5153 18C11.5164 18 12.4931 17.6417 13.2315 16.9786L11.8951 15.4906C11.5411 15.8085 11.0467 16 10.5153 16V18ZM7.79907 16.9786C8.5374 17.6417 9.51417 18 10.5153 18V16C9.98379 16 9.48941 15.8085 9.13542 15.4906L7.79907 16.9786ZM1.27043 11.0114L7.79259 16.9727L9.1419 15.4965L2.61975 9.53515L1.27043 11.0114ZM-0.994046 6.28696C-0.916886 8.08704 -0.0954291 9.77372 1.2736 11.0143L2.61658 9.53226C1.62212 8.63112 1.05715 7.43842 1.00412 6.20131L-0.994046 6.28696ZM0.866827 1.40284C-0.396216 2.74187 -1.07123 4.48632 -0.994046 6.28696L1.00412 6.20131C0.951115 4.96476 1.41183 3.7398 2.32172 2.77517L0.866827 1.40284ZM5.75986 -0.958409C3.87849 -0.768296 2.12723 0.0666183 0.866827 1.40284L2.32172 2.77517C3.23425 1.80775 4.53172 1.17588 5.96094 1.03146L5.75986 -0.958409ZM11.0769 0.360131C9.54007 -0.68296 7.64102 -1.1485 5.75986 -0.958409L5.96094 1.03146C7.39037 0.887013 8.81786 1.24403 9.95367 2.01495L11.0769 0.360131ZM14.996 -0.949296C13.2105 -1.07709 11.4252 -0.619339 9.9612 0.355068L11.0693 2.02001C12.1528 1.29892 13.4955 0.94842 14.8533 1.0456L14.996 -0.949296Z" fill="white" mask="url(#path-1-inside-1_671_1711)"/>
</g>
</g>
</svg>
