<svg width="119" height="92" viewBox="0 0 119 92" fill="none" xmlns="http://www.w3.org/2000/svg">
<g id="Layer 1">
<g id="Group">
<g id="Group_2">
<path id="Vector" d="M118.862 4.95323V86.5517C118.862 89.276 116.633 91.5049 113.908 91.5049H4.94971C2.2292 91.5049 0 89.276 0 86.5517V4.95323C0 2.22896 2.2292 0 4.94971 0H113.908C116.633 0 118.862 2.22896 118.862 4.95323Z" fill="#F4F4F4"/>
<g id="Group_3">
<path id="Vector_2" d="M118.862 20.4707V86.5517C118.862 89.276 116.633 91.505 113.908 91.505H18.2599V25.4239C18.2599 22.6997 20.4891 20.4707 23.2097 20.4707H118.862Z" fill="white"/>
<path id="Vector_3" d="M23.2096 18.8467C19.5836 18.8467 16.6357 21.7983 16.6357 25.4239V91.505H19.8841V25.4239C19.8841 23.5888 21.3743 22.0947 23.2096 22.0947H118.862V18.8467H23.2096Z" fill="#E5E5E5"/>
</g>
</g>
<g id="Group_4">
<path id="Vector_4" d="M26.6813 39.3455L30.6444 29.1143H32.2523L36.1828 39.3455H34.5018L32.163 33.1783C32.1345 33.1093 32.0777 32.9429 31.9965 32.683C31.9153 32.4191 31.8178 32.1268 31.7123 31.8061C31.6067 31.4853 31.5092 31.1889 31.4199 30.921C31.3306 30.653 31.2737 30.4784 31.2453 30.4013L31.5823 30.385C31.5255 30.5515 31.4524 30.7586 31.3712 31.0144C31.29 31.2661 31.2006 31.534 31.1072 31.8182C31.0139 32.1024 30.9245 32.3663 30.8352 32.614C30.7459 32.8617 30.6728 33.0687 30.6159 33.2352L28.2933 39.3455H26.6854H26.6813ZM28.4355 36.7999L29.0202 35.2814H33.6694L34.3434 36.7999H28.4395H28.4355Z" fill="black"/>
<path id="Vector_5" d="M40.2595 39.4918C39.6261 39.4918 39.0495 39.3172 38.5257 38.964C38.0059 38.6148 37.5877 38.1357 37.2751 37.5308C36.9624 36.9258 36.8081 36.2438 36.8081 35.4845C36.8081 34.7253 36.9665 34.031 37.2832 33.4302C37.5999 32.8293 38.0303 32.3624 38.5703 32.0213C39.1104 31.6803 39.7195 31.5098 40.3894 31.5098C40.7874 31.5098 41.1528 31.5666 41.4858 31.6843C41.8187 31.8021 42.107 31.9645 42.3547 32.1756C42.6024 32.3867 42.8095 32.6263 42.9678 32.8983C43.1262 33.1703 43.2277 33.4626 43.2683 33.7753L42.9313 33.6575V31.6681H44.4499V39.3416H42.9313V37.5145L43.2805 37.413C43.2236 37.6769 43.1018 37.9327 42.9232 38.1804C42.7445 38.4281 42.5131 38.6514 42.2369 38.8462C41.9608 39.0411 41.6522 39.1954 41.3152 39.3131C40.9782 39.4309 40.6249 39.4877 40.2554 39.4877L40.2595 39.4918ZM40.6574 38.1032C41.1163 38.1032 41.5182 37.9896 41.8715 37.7663C42.2207 37.543 42.4968 37.2344 42.6958 36.8365C42.8947 36.4427 42.9963 35.992 42.9963 35.4845C42.9963 34.977 42.8947 34.5426 42.6958 34.1528C42.4968 33.7631 42.2207 33.4545 41.8715 33.2312C41.5223 33.0079 41.1163 32.8942 40.6574 32.8942C40.1986 32.8942 39.8128 33.0079 39.4677 33.2312C39.1226 33.4545 38.8505 33.7631 38.6475 34.1528C38.4485 34.5426 38.347 34.9851 38.347 35.4845C38.347 35.9839 38.4485 36.4427 38.6475 36.8365C38.8465 37.2303 39.1185 37.5389 39.4677 37.7663C39.8128 37.9896 40.2108 38.1032 40.6574 38.1032Z" fill="black"/>
</g>
</g>
</g>
</svg>
