<svg width="22" height="23" viewBox="0 0 22 23" fill="none" xmlns="http://www.w3.org/2000/svg">
<g id="new post">
<path id="Vector" d="M10.6504 16.9615C10.9525 16.9615 11.2058 16.8529 11.4105 16.6358C11.6145 16.4195 11.7165 16.1511 11.7165 15.8307V12.4384H14.9412C15.2433 12.4384 15.492 12.3299 15.6875 12.1128C15.8829 11.8964 15.9806 11.6281 15.9806 11.3077C15.9806 10.9873 15.8783 10.7185 15.6736 10.5014C15.4696 10.2851 15.2166 10.1769 14.9146 10.1769H11.7165V6.75633C11.7165 6.43595 11.6145 6.1721 11.4105 5.9648C11.2058 5.75749 10.9525 5.65383 10.6504 5.65383C10.3484 5.65383 10.0954 5.76201 9.89139 5.97836C9.68671 6.19547 9.58437 6.46422 9.58437 6.7846V10.1769H6.35959C6.05755 10.1769 5.80881 10.2851 5.61336 10.5014C5.41792 10.7185 5.3202 10.9873 5.3202 11.3077C5.3202 11.6281 5.42219 11.8964 5.62616 12.1128C5.83084 12.3299 6.0842 12.4384 6.38624 12.4384H9.58437V15.859C9.58437 16.1794 9.68671 16.4432 9.89139 16.6505C10.0954 16.8578 10.3484 16.9615 10.6504 16.9615ZM10.6504 22.6153C9.17572 22.6153 7.78987 22.3183 6.49285 21.7243C5.19583 21.131 4.0676 20.3255 3.10816 19.3078C2.14873 18.2902 1.38935 17.0934 0.830032 15.7177C0.270004 14.3419 -0.0100098 12.8719 -0.0100098 11.3077C-0.0100098 9.74344 0.270004 8.27345 0.830032 6.89768C1.38935 5.52191 2.14873 4.32518 3.10816 3.30749C4.0676 2.2898 5.19583 1.48394 6.49285 0.889913C7.78987 0.296638 9.17572 0 10.6504 0C12.1251 0 13.511 0.296638 14.808 0.889913C16.105 1.48394 17.2332 2.2898 18.1927 3.30749C19.1521 4.32518 19.9115 5.52191 20.4708 6.89768C21.0308 8.27345 21.3108 9.74344 21.3108 11.3077C21.3108 12.8719 21.0308 14.3419 20.4708 15.7177C19.9115 17.0934 19.1521 18.2902 18.1927 19.3078C17.2332 20.3255 16.105 21.131 14.808 21.7243C13.511 22.3183 12.1251 22.6153 10.6504 22.6153Z" fill="#7D7E80"/>
</g>
</svg>
