<svg width="85" height="15" viewBox="0 0 85 15" fill="none" xmlns="http://www.w3.org/2000/svg">
<g id="Group 29">
<path id="Vector" d="M11.6214 13.9835C11.1214 14.3421 7.91287 12.0694 7.29836 12.0644C6.68385 12.0595 3.4392 14.2798 2.94498 13.9133C2.45077 13.5467 3.61264 9.78152 3.42748 9.1934C3.24232 8.60528 0.135767 6.19402 0.330364 5.60895C0.525004 5.02389 4.45161 4.96955 4.95166 4.61102C5.45171 4.25254 6.77643 0.541928 7.39098 0.54688C8.00545 0.551875 9.27032 4.28346 9.76454 4.65004C10.2588 5.01657 14.184 5.13455 14.3692 5.72267C14.5544 6.3108 11.4095 8.67142 11.2149 9.25648C11.0203 9.84155 12.1215 13.625 11.6214 13.9835Z" fill="#F6C65C"/>
<path id="Vector_2" d="M29.7897 13.9835C29.2512 14.3421 25.7958 12.0694 25.134 12.0644C24.4723 12.0595 20.978 14.2798 20.4458 13.9133C19.9136 13.5467 21.1648 9.78152 20.9654 9.1934C20.766 8.60528 17.4205 6.19402 17.63 5.60895C17.8397 5.02389 22.0683 4.96955 22.6068 4.61102C23.1453 4.25254 24.572 0.541928 25.2338 0.54688C25.8955 0.551875 27.2577 4.28346 27.7899 4.65004C28.3222 5.01657 32.5494 5.13455 32.7488 5.72267C32.9482 6.3108 29.5614 8.67142 29.3518 9.25648C29.1423 9.84155 30.3282 13.625 29.7897 13.9835Z" fill="#F6C65C"/>
<path id="Vector_3" d="M47.0888 13.9835C46.5503 14.3421 43.095 12.0694 42.4332 12.0644C41.7714 12.0595 38.2772 14.2798 37.7449 13.9133C37.2127 13.5467 38.4639 9.78152 38.2645 9.1934C38.0651 8.60528 34.7196 6.19402 34.9292 5.60895C35.1388 5.02389 39.3674 4.96955 39.906 4.61102C40.4445 4.25254 41.8711 0.541928 42.5329 0.54688C43.1947 0.551875 44.5568 4.28346 45.0891 4.65004C45.6213 5.01657 49.8485 5.13455 50.048 5.72267C50.2474 6.3108 46.8606 8.67142 46.651 9.25648C46.4414 9.84155 47.6273 13.625 47.0888 13.9835Z" fill="#F6C65C"/>
<path id="Vector_4" d="M64.3879 13.9835C63.8494 14.3421 60.3941 12.0694 59.7323 12.0644C59.0705 12.0595 55.5763 14.2798 55.0441 13.9133C54.5118 13.5467 55.7631 9.78152 55.5637 9.1934C55.3643 8.60528 52.0188 6.19402 52.2283 5.60895C52.4379 5.02389 56.6666 4.96955 57.2051 4.61102C57.7436 4.25254 59.1702 0.541928 59.8321 0.54688C60.4938 0.551875 61.856 4.28346 62.3882 4.65004C62.9204 5.01657 67.1476 5.13455 67.3471 5.72267C67.5465 6.3108 64.1597 8.67142 63.9501 9.25648C63.7405 9.84155 64.9265 13.625 64.3879 13.9835Z" fill="#7D7E80"/>
<path id="Vector_5" d="M81.8989 13.9835C81.3988 14.3421 78.1903 12.0694 77.5758 12.0644C76.9613 12.0595 73.7166 14.2798 73.2224 13.9133C72.7282 13.5467 73.8901 9.78152 73.7049 9.1934C73.5198 8.60528 70.4132 6.19402 70.6078 5.60895C70.8025 5.02389 74.7291 4.96955 75.2291 4.61102C75.7292 4.25254 77.0539 0.541928 77.6684 0.54688C78.2829 0.551875 79.5478 4.28346 80.042 4.65004C80.5362 5.01657 84.4615 5.13455 84.6467 5.72267C84.8318 6.3108 81.687 8.67142 81.4923 9.25648C81.2977 9.84155 82.3989 13.625 81.8989 13.9835Z" fill="#8C8F96"/>
</g>
</svg>
